<svg viewBox="0 0 24 24" xmlns="http://www.w3.org/2000/svg">
<path fill-rule="evenodd" clip-rule="evenodd" d="M12 0C21.54 0 24 2.46 24 12C24 21.54 21.54 24 12 24C2.46 24 0 21.54 0 12C0 2.46 2.46 0 12 0ZM16.9 13.16L16.74 13.15C13.5203 13.071 10.929 10.4797 10.85 7.26V7.1C10.85 6.73 10.88 6.36 10.95 6C7.93455 6.55063 5.80512 9.26628 5.98955 12.326C6.17399 15.3858 8.61419 17.826 11.674 18.0104C14.7337 18.1949 17.4494 16.0655 18 13.05C17.65 13.12 17.28 13.15 16.9 13.15V13.16ZM11.93 16.86C10.5501 16.8579 9.23677 16.2669 8.32003 15.2355C7.40329 14.2042 6.97034 12.8306 7.13 11.46C7.43722 14.2832 9.66677 16.5128 12.49 16.82C12.31 16.84 12.12 16.86 11.93 16.86Z" fill="#7B1FA2"/>
</svg>
