<svg xmlns="http://www.w3.org/2000/svg" fill="none" viewBox="0 0 318 178" xmlns:v="https://vecta.io/nano"><g fill="#c2d1db"><path d="M4.818 164h308.364c2.661 0 4.818 1.791 4.818 4s-2.157 4-4.818 4H4.818C2.158 172 0 170.209 0 168s2.157-4 4.818-4z"/><path d="M47.174 167.336h216.31c1.934 0 3.503 1.778 3.503 3.97s-1.569 3.971-3.503 3.971H47.174c-1.935 0-3.503-1.778-3.503-3.971s1.568-3.97 3.503-3.97z"/></g><path fill="#f6f4f3" d="M100.45 92.789c1.202-1.396 1.515-2.963 2.789-4.328.81-.867 2.007-1.649 2.793-2.521.487-.541.721-1.139 1.18-1.681l1.513-1.651c.234-.276.288-.537.734-.757 2.465-1.22 6.949-.718 10.158-.988 1.833-.154 2.834-.742 3.928-1.409 2.673-1.629 3.268-5.054 7.618-4.584 3.427.37 8.154 4.317 12.024 4.584s3.203 4.483 5.625 3.154c1.345-.739 5.173.757 8.457.757s.933 1.928 3.194 2.286c1.245.197 8.161 7.039 8.02 7.904l-3.324 1.848c.092 1.027 4.485-1.67 3.478-.769-.534.478-3.302-.49-4.297-.364-2.28.287-4.548.821-6.93.876-5.342.122-11.677-.409-17.005-.673-7.734-.384-13.204 1.14-20.788.162-4.654-.6-3.253.906-7.618-.162-2.583-.632-10.6 1.03-9.713 0"/><path fill="#c96ce5" d="M164.933 28.573h-23.005a3.854 3.854 0 00-3.854 3.853v.001a3.854 3.854 0 003.854 3.854h23.005a3.854 3.854 0 000-7.709z"/><path fill="#f2f5f7" stroke="#e3acf1" stroke-width="10" d="M204.527 36.6a12.978 12.978 0 0 1 9.218 3.781 12.983 12.983 0 0 1 3.789 10.43l-4.74 51.481H95.661l-4.789-51.118a12.977 12.977 0 0 1 12.917-14.231l100.738-.343z"/><path fill="url(#A)" d="M154.966 151.531L62.058 4.001h186.583l-93.675 147.53z"/><path fill="url(#B)" d="M155.116 152L62 0h187l-93.884 152z"/><g fill="#f5d95c" stroke="#f0c814"><path stroke-width="2" d="M168.318 71.936a3.75 3.75 0 1 0 0-7.516 3.75 3.75 0 1 0 0 7.516zm35.086 16.092a3.906 3.906 0 1 0 0-7.811 3.906 3.906 0 0 0 0 7.811z"/><path stroke-width="3" d="M115.422 88.17c1.189 0 2.153-1.142 2.153-2.552s-.964-2.552-2.153-2.552-2.153 1.143-2.153 2.552.964 2.553 2.153 2.553z"/><path stroke-width="2" d="M131.163 78.2a3.75 3.75 0 1 0 0-7.516 3.75 3.75 0 0 0-3.739 3.758c0 2.075 1.674 3.757 3.739 3.757z"/></g><path fill="#dcb918" d="M206.156 93.836c-8.764 0-6.028-7.683-9.923-12.912s-6.33-13.508-11.685-15.251-9.251-1.744-15.093 1.307-25.34 11.33-37.512 7.408S114.438 91.8 102.753 91.8c0-.29.162.732.487 3.069h45.279l57.637-1.033z"/><path fill="#7b1fa2" d="M187.912 81.535l-7.732-13.392a2.416 2.416 0 0 1-.237-1.837l2.201-8.215a2.437 2.437 0 0 1 2.976-1.718l8.215 2.201a2.423 2.423 0 0 1 1.481 1.139l7.732 13.392c.309.536.41 1.192.237 1.837a2.374 2.374 0 0 1-1.136 1.47l-10.416 6.013a2.374 2.374 0 0 1-1.84.25 2.455 2.455 0 0 1-1.481-1.14zm-.946-20.008a1.734 1.734 0 1 0-3.353-.898 1.733 1.733 0 0 0 1.227 2.126c.928.248 1.877-.3 2.126-1.228z"/><path stroke="#7b1fa2" stroke-dasharray="1 5" stroke-linecap="round" stroke-width="3" d="M185.903 59.888c.975-8.737 6.597-13.105 16.868-13.105"/><path stroke="#c2d1db" stroke-width="2" d="M151.525 69.933a4.773 4.773 0 10-4.035-8.65 4.773 4.773 0 004.035 8.65z"/><path fill="#d6f6f6" d="M148.25 61.885l2.518-6.92-3.86 1.395 1.342 5.525z"/><path fill="#b2ebf2" d="M148.25 61.885l-.628-5.453-3.146 1.467 3.774 3.986z"/><path fill="#cdf5f5" d="M148.25 61.885l-3.774-3.986-3.146 1.467 6.92 2.519z"/><path fill="#bfe8ed" d="M145.42 55.544l2.202.888-3.146 1.467.944-2.355z"/><path fill="#b2ebf2" d="M148.566 54.077l2.202.888-3.146 1.467.944-2.355zm-6.395 2.983l2.306.84-3.146 1.467.84-2.307z"/><path fill="#e6ffff" d="M144.372 57.948l.944-2.356-3.146 1.467 2.202.889zm3.251-1.516l.839-2.306-3.146 1.467 2.307.839z"/><path fill="#f0c814" d="M113.821 86.37c7.235 0 15.274-1.227 18.489-6.137s5.225-12.686 9.647-14.323 7.636-1.636 12.46 1.228 12.861 10.64 22.91 6.957 22.508 12.276 32.154 12.276c0-.273-.134 2.046-.401 6.956H98.146c5.627-4.637 10.852-6.956 15.675-6.956z"/><path fill="#faedfc" stroke="#e3acf1" stroke-width="11" d="M205.878 95.492a13.41 13.41 0 0 1 13.451 13.541l-1.437 42.37a13.417 13.417 0 0 1-4.095 9.214 13.413 13.413 0 0 1-9.349 3.78H103.034a13.412 13.412 0 0 1-13.426-12.629l-2.573-42.002a13.41 13.41 0 0 1 13.426-14.274h105.417z"/><g fill="#e3acf1"><path d="M208.721 116.132H97.639a.867.867 0 00-.868.868v.542c0 .479.388.868.868.868H208.72a.868.868 0 00.868-.868V117a.868.868 0 00-.868-.868zM204.883 129.8H103.011a.868.868 0 00-.868.868v.543c0 .479.388.867.868.867h101.872a.868.868 0 00.868-.867v-.543a.868.868 0 00-.868-.868zM201.047 143.469h-93.431a.868.868 0 00-.868.868v.542c0 .479.389.868.868.868h93.431a.868.868 0 00.867-.868v-.542a.867.867 0 00-.867-.868z" opacity=".446"/><path d="M153.18 120.09a17.36 17.36 0 0 0 17.356-17.356 17.36 17.36 0 0 0-17.356-17.357 17.36 17.36 0 0 0-17.357 17.357 17.36 17.36 0 0 0 17.357 17.356z"/></g><path fill="#aa2dd7" d="M153.18 94.923c2.601 0 4.709 2.098 4.709 4.686a4.673 4.673 0 01-1.998 3.833l2.315 4.608c.433.862.062 1.9-.829 2.319a1.848 1.848 0 01-.785.175h-6.825c-.991 0-1.794-.777-1.794-1.736 0-.263.062-.522.18-.758l2.315-4.608a4.673 4.673 0 01-1.998-3.833c0-2.588 2.108-4.686 4.71-4.686z"/><path fill="#e3acf1" d="M217.599 88.588l-10.56-.053c-3.18 6.236-2.601 11.554 1.735 15.953s9.577 4.523 15.722.372l.011-9.322a6.943 6.943 0 0 0-6.908-6.95zm7.41 73.464l.031-8.992c-6.291-3.226-11.65-2.65-16.077 1.728s-4.544 9.677-.35 15.897l7.688.022a8.696 8.696 0 0 0 8.708-8.655zM87.33 90.696l10.56-.054c3.181 6.237 2.602 11.554-1.734 15.953s-9.577 4.524-15.723.373l-.01-9.322a6.943 6.943 0 0 1 6.907-6.95zM82.258 163.5l-.037-9.396c6.448-3.293 11.942-2.701 16.484 1.775s4.663 9.892.367 16.247l-8.116.017a8.678 8.678 0 0 1-8.698-8.643z"/><path fill="#f0c814" d="M59.455 52.03L57 54.483l2.455 2.454 2.454-2.454-2.454-2.455zm40.787-35.221l-2.454 2.454 2.454 2.455 2.455-2.455-2.455-2.454zm138.703 26.044l-2.454 2.455 2.454 2.454 2.455-2.454-2.455-2.455z"/><path fill="#fefaec" d="M153.051 80.878c1.169 0 3.092-.777 3.092-1.735s-1.923-1.736-3.092-1.736-2.115.777-2.115 1.736.947 1.735 2.115 1.735zm29.1 3.472c-.974 0-2.577-.777-2.577-1.736s1.603-1.736 2.577-1.736a1.75 1.75 0 0 1 1.762 1.736c0 .959-.789 1.736-1.762 1.736zm11.634 2.604c-.779 0-2.061-.767-2.061-1.42s1.282-1.184 2.061-1.184 1.41.53 1.41 1.184-.631 1.42-1.41 1.42z"/><path fill="#fff" d="M165.347 90.678l-1.48 3.956-1.48-3.956-3.949-1.483 3.949-1.483 1.48-3.955 1.48 3.954 3.949 1.484-3.949 1.483zm45.674-48.792l-1.48 3.956-1.48-3.956-3.95-1.482 3.95-1.483 1.479-3.956 1.481 3.956 3.949 1.483-3.949 1.482zm-112.166-.908L97.56 46.22l-.976-5.175-5.176-.978 5.244-1.292 1.293-5.245.977 5.176 5.176.977-5.245 1.294z"/><path fill="#f5d95c" d="M73.687 89.577l-1.292 5.243-.977-5.176-5.177-.977 5.244-1.292 1.294-5.245.977 5.176 5.176.977-5.245 1.294zm105.65-71.05l-1.925 8.055-1.568-7.978-7.978-1.568 8.056-1.925 1.925-8.055 1.568 7.977 7.978 1.569-8.056 1.925zm62.708 58.033l-1.293 5.243-.977-5.176-5.176-.977 5.244-1.292 1.293-5.245.978 5.176 5.175.977-5.244 1.293z"/><path fill="#fff" d="M126.277 87.113c2.095 0-11.791-15.621-13.885-15.621s.931 5.732.931 8.27 10.86 7.35 12.954 7.35z"/><path fill="#7b1fa2" d="M134.139 76.768l-.372-.011c-7.471-.183-13.484-6.18-13.668-13.631l-.023-.359a14.14 14.14 0 0 1 .232-2.557c-7.091 1.366-11.99 7.87-11.327 15.043s6.669 12.676 13.891 12.728c6.778.015 12.596-4.808 13.819-11.456a14.14 14.14 0 0 1-2.552.243zm-10.869 8.609a10.897 10.897 0 0 1-8.126-3.655 10.886 10.886 0 0 1-2.679-8.495 13.616 13.616 0 0 0 12.077 12.071c-.417.045-.833.079-1.272.079z"/><defs><linearGradient id="A" x1="155.349" x2="155.349" y1="151.531" y2="4" gradientUnits="userSpaceOnUse"><stop stop-color="#eee" stop-opacity=".6"/><stop offset="1" stop-color="#ffd322" stop-opacity="0"/></linearGradient><linearGradient id="B" x1="152.897" x2="152.897" y1="157.081" y2="-3.233" gradientUnits="userSpaceOnUse"><stop stop-color="#ffd322"/><stop offset="1" stop-color="#fff" stop-opacity="0"/></linearGradient></defs></svg>